<svg xmlns="http://www.w3.org/2000/svg" width="1600" height="1000" viewBox="0 0 1600 1000" role="img" aria-labelledby="title desc">
  <title id="title">gem5 + SystemC NPU architecture</title>
  <desc id="desc">Current implementation architecture for direct XAI command dispatch, bounded queues, engine execution, sync tokens, CPU backpressure, and AICore local memory data paths.</desc>
  <defs>
    <marker id="arrow-dark" markerWidth="12" markerHeight="12" refX="10" refY="6" orient="auto" markerUnits="strokeWidth">
      <path d="M2,2 L10,6 L2,10 Z" fill="#334155"/>
    </marker>
    <marker id="arrow-blue" markerWidth="12" markerHeight="12" refX="10" refY="6" orient="auto" markerUnits="strokeWidth">
      <path d="M2,2 L10,6 L2,10 Z" fill="#2563eb"/>
    </marker>
    <marker id="arrow-green" markerWidth="12" markerHeight="12" refX="10" refY="6" orient="auto" markerUnits="strokeWidth">
      <path d="M2,2 L10,6 L2,10 Z" fill="#15803d"/>
    </marker>
    <marker id="arrow-orange" markerWidth="12" markerHeight="12" refX="10" refY="6" orient="auto" markerUnits="strokeWidth">
      <path d="M2,2 L10,6 L2,10 Z" fill="#c2410c"/>
    </marker>
    <style>
      .bg { fill: #f8fafc; }
      .title { font: 700 28px Arial, sans-serif; fill: #0f172a; }
      .subtitle { font: 14px Arial, sans-serif; fill: #475569; }
      .section-title { font: 700 18px Arial, sans-serif; fill: #111827; }
      .label { font: 700 15px Arial, sans-serif; fill: #111827; }
      .small { font: 13px Arial, sans-serif; fill: #334155; }
      .tiny { font: 12px Arial, sans-serif; fill: #475569; }
      .domain { fill: none; stroke: #cbd5e1; stroke-width: 2; rx: 14; }
      .box { fill: #ffffff; stroke: #94a3b8; stroke-width: 1.4; rx: 8; }
      .gem5 { fill: #eff6ff; stroke: #2563eb; }
      .cluster { fill: #eef2ff; stroke: #4f46e5; }
      .sched { fill: #fff7ed; stroke: #ea580c; }
      .queue { fill: #fffbeb; stroke: #d97706; }
      .engine { fill: #fdf2f8; stroke: #db2777; }
      .storage { fill: #f0fdf4; stroke: #16a34a; }
      .sync { fill: #fefce8; stroke: #ca8a04; }
      .note { fill: #ffffff; stroke: #cbd5e1; stroke-width: 1.2; rx: 8; }
      .cmd { stroke: #2563eb; stroke-width: 2.5; fill: none; marker-end: url(#arrow-blue); }
      .route { stroke: #334155; stroke-width: 1.8; fill: none; marker-end: url(#arrow-dark); }
      .data { stroke: #15803d; stroke-width: 2.3; fill: none; marker-end: url(#arrow-green); }
      .sync-line { stroke: #c2410c; stroke-width: 1.8; fill: none; stroke-dasharray: 7 5; marker-end: url(#arrow-orange); }
      .backpressure { stroke: #dc2626; stroke-width: 2.2; fill: none; stroke-dasharray: 8 5; marker-end: url(#arrow-dark); }
    </style>
  </defs>

  <rect class="bg" x="0" y="0" width="1600" height="1000"/>
  <text class="title" x="42" y="48">gem5 + SystemC NPU 当前实现框图</text>
  <text class="subtitle" x="42" y="76">direct XAI submit, per-NPU scheduler, MTE/VCU/Cube/Fixpipe engines, L1/L0/UB/GM storage, sync token, ReExec backpressure</text>

  <rect class="domain" x="40" y="110" width="390" height="760"/>
  <text class="section-title" x="64" y="143">gem5 CPU / ISA / NPU Device</text>

  <rect class="box gem5" x="78" y="178" width="314" height="74"/>
  <text class="label" x="102" y="207">Bare-metal RV64 CPU</text>
  <text class="small" x="102" y="231">runs XAI ELF, retires async NPU commands</text>

  <rect class="box gem5" x="78" y="286" width="314" height="86"/>
  <text class="label" x="102" y="316">XAI custom-2 decoder</text>
  <text class="small" x="102" y="340">decoder.isa + formats/xai.isa</text>
  <text class="small" x="102" y="360">captures rd/rs1/rs2 GPR values</text>

  <rect class="box gem5" x="78" y="406" width="314" height="88"/>
  <text class="label" x="102" y="436">sendXaiCommandDirect()</text>
  <text class="small" x="102" y="460">submitNpuCommandDirect(base, command)</text>
  <text class="small" x="102" y="480">Backpressured -> ReExec retry</text>

  <rect class="box cluster" x="78" y="528" width="314" height="98"/>
  <text class="label" x="102" y="558">NpuDevice / NpuCluster</text>
  <text class="small" x="102" y="582">masked NPU broadcast</text>
  <text class="small" x="102" y="604">checks all target NPUs before submit</text>

  <rect class="box sync" x="78" y="660" width="314" height="96"/>
  <text class="label" x="102" y="690">CPU sync endpoint</text>
  <text class="small" x="102" y="714">sync_set / sync_wait can target Cpu</text>
  <text class="small" x="102" y="736">used to wait for NPU completion before m5_exit</text>

  <rect class="note" x="78" y="790" width="314" height="48"/>
  <text class="small" x="102" y="819">CPU stalls only when NPU cannot accept a command</text>

  <rect class="domain" x="470" y="110" width="1088" height="760"/>
  <text class="section-title" x="494" y="143">SystemC NPU instance, replicated per NPU</text>

  <rect class="box sched" x="506" y="178" width="240" height="76"/>
  <text class="label" x="532" y="207">NpuTop::submit()</text>
  <text class="small" x="532" y="231">bounded ingress FIFO</text>

  <rect class="box sched" x="506" y="292" width="240" height="94"/>
  <text class="label" x="532" y="322">Scheduler</text>
  <text class="small" x="532" y="346">route by coarse Opcode</text>
  <text class="small" x="532" y="368">freeze VCU context at dispatch</text>

  <rect class="box sync" x="506" y="424" width="240" height="108"/>
  <text class="label" x="532" y="454">Sync + VCU context</text>
  <text class="small" x="532" y="478">token: src, dst, id</text>
  <text class="small" x="532" y="500">nsetvl enters VCU FIFO</text>
  <text class="small" x="532" y="520">updates nvl/eew_bytes</text>

  <rect class="box queue" x="806" y="156" width="150" height="56"/>
  <text class="label" x="846" y="186">MTE4 FIFO</text>
  <text class="tiny" x="832" y="204">GM -> UB/L1</text>

  <rect class="box queue" x="806" y="232" width="150" height="56"/>
  <text class="label" x="846" y="262">MTE1 FIFO</text>
  <text class="tiny" x="818" y="280">L1 -> GM/UB/L0</text>

  <rect class="box queue" x="806" y="308" width="150" height="56"/>
  <text class="label" x="846" y="338">MTE2 FIFO</text>
  <text class="tiny" x="826" y="356">UB -> GM/L1</text>

  <rect class="box queue" x="806" y="384" width="150" height="56"/>
  <text class="label" x="850" y="414">VCU FIFO</text>
  <text class="tiny" x="820" y="432">nsetvl/vload/vadd</text>

  <rect class="box queue" x="806" y="460" width="150" height="56"/>
  <text class="label" x="846" y="490">Cube FIFO</text>
  <text class="tiny" x="824" y="508">8x16 @ 16x16 fp32</text>

  <rect class="box queue" x="806" y="536" width="150" height="56"/>
  <text class="label" x="830" y="566">Fixpipe FIFO</text>
  <text class="tiny" x="824" y="584">L0C -> L1/UB</text>

  <rect class="box queue" x="806" y="612" width="150" height="56"/>
  <text class="label" x="820" y="642">GM File I/O FIFO</text>
  <text class="tiny" x="826" y="660">test import/export</text>

  <rect class="box engine" x="1018" y="148" width="168" height="68"/>
  <text class="label" x="1055" y="178">MTE4 thread</text>
  <text class="tiny" x="1040" y="199">copy GM to UB/L1</text>

  <rect class="box engine" x="1018" y="224" width="168" height="68"/>
  <text class="label" x="1055" y="254">MTE1 thread</text>
  <text class="tiny" x="1032" y="275">copy L1 to GM/UB/L0</text>

  <rect class="box engine" x="1018" y="300" width="168" height="68"/>
  <text class="label" x="1055" y="330">MTE2 thread</text>
  <text class="tiny" x="1040" y="351">copy UB to GM/L1</text>

  <rect class="box engine" x="1018" y="376" width="168" height="68"/>
  <text class="label" x="1062" y="406">VCU thread</text>
  <text class="tiny" x="1038" y="427">operation descriptor table</text>

  <rect class="box engine" x="1018" y="452" width="168" height="68"/>
  <text class="label" x="1056" y="482">Cube thread</text>
  <text class="tiny" x="1037" y="503">fp32 matmul to L0C</text>

  <rect class="box engine" x="1018" y="528" width="168" height="68"/>
  <text class="label" x="1048" y="558">Fixpipe thread</text>
  <text class="tiny" x="1040" y="579">copy L0C to L1/UB</text>

  <rect class="box engine" x="1018" y="604" width="168" height="68"/>
  <text class="label" x="1032" y="634">GM File I/O thread</text>
  <text class="tiny" x="1036" y="655">host file bridge for tests</text>

  <rect class="box storage" x="1260" y="154" width="122" height="62"/>
  <text class="label" x="1300" y="184">GM</text>
  <text class="tiny" x="1282" y="204">SparseMemory</text>

  <rect class="box storage" x="1410" y="154" width="112" height="62"/>
  <text class="label" x="1454" y="184">UB</text>
  <text class="tiny" x="1432" y="204">FlatMemory</text>

  <rect class="box storage" x="1260" y="264" width="262" height="66"/>
  <text class="label" x="1376" y="294">L1</text>
  <text class="tiny" x="1328" y="316">512KB FlatMemory</text>

  <rect class="box storage" x="1260" y="380" width="122" height="62"/>
  <text class="label" x="1296" y="410">L0A</text>
  <text class="tiny" x="1288" y="430">64KB A input</text>

  <rect class="box storage" x="1400" y="380" width="122" height="62"/>
  <text class="label" x="1436" y="410">L0B</text>
  <text class="tiny" x="1428" y="430">64KB B input</text>

  <rect class="box storage" x="1328" y="500" width="122" height="62"/>
  <text class="label" x="1364" y="530">L0C</text>
  <text class="tiny" x="1356" y="550">64KB output</text>

  <rect class="note" x="506" y="712" width="328" height="82"/>
  <text class="label" x="532" y="742">Backpressure rule</text>
  <text class="small" x="532" y="766">can_accept = ingress space + target FIFO space</text>
  <text class="small" x="532" y="786">failure returns ReExec to retry same XAI instruction</text>

  <rect class="note" x="876" y="712" width="312" height="82"/>
  <text class="label" x="902" y="742">Async execution rule</text>
  <text class="small" x="902" y="766">accepted non-sync commands do not wait for engine done</text>
  <text class="small" x="902" y="786">software uses set/wait for data dependency</text>

  <rect class="note" x="1230" y="712" width="292" height="82"/>
  <text class="label" x="1256" y="742">Test file path</text>
  <text class="small" x="1256" y="766">GM File I/O imports inputs and exports results</text>
  <text class="small" x="1256" y="786">not a real hardware file system</text>

  <path class="cmd" d="M235 252 L235 286"/>
  <path class="cmd" d="M235 372 L235 406"/>
  <path class="cmd" d="M235 494 L235 528"/>
  <path class="cmd" d="M392 577 C440 577, 444 216, 506 216"/>
  <path class="backpressure" d="M506 205 C444 205, 440 450, 392 450"/>

  <path class="route" d="M626 254 L626 292"/>
  <path class="route" d="M746 338 L806 184"/>
  <path class="route" d="M746 338 L806 260"/>
  <path class="route" d="M746 338 L806 336"/>
  <path class="route" d="M746 338 L806 412"/>
  <path class="route" d="M746 338 L806 488"/>
  <path class="route" d="M746 338 L806 564"/>
  <path class="route" d="M746 338 L806 640"/>

  <path class="route" d="M956 184 L1018 184"/>
  <path class="route" d="M956 260 L1018 260"/>
  <path class="route" d="M956 336 L1018 336"/>
  <path class="route" d="M956 412 L1018 412"/>
  <path class="route" d="M956 488 L1018 488"/>
  <path class="route" d="M956 564 L1018 564"/>
  <path class="route" d="M956 640 L1018 640"/>

  <path class="sync-line" d="M626 424 L806 184"/>
  <path class="sync-line" d="M626 424 L806 260"/>
  <path class="sync-line" d="M626 424 L806 336"/>
  <path class="sync-line" d="M626 424 L806 412"/>
  <path class="sync-line" d="M626 424 L806 488"/>
  <path class="sync-line" d="M626 424 L806 564"/>
  <path class="sync-line" d="M626 424 L806 640"/>
  <path class="sync-line" d="M506 484 C440 484, 424 708, 392 708"/>

  <path class="data" d="M1186 182 L1260 182"/>
  <path class="data" d="M1186 190 C1240 190, 1240 296, 1260 296"/>
  <path class="data" d="M1186 258 C1228 258, 1228 296, 1260 296"/>
  <path class="data" d="M1186 258 C1240 258, 1240 182, 1410 182"/>
  <path class="data" d="M1186 258 C1220 258, 1220 410, 1260 410"/>
  <path class="data" d="M1186 258 C1236 258, 1236 410, 1400 410"/>
  <path class="data" d="M1186 334 C1222 334, 1222 182, 1260 182"/>
  <path class="data" d="M1186 334 C1244 334, 1244 182, 1410 182"/>
  <path class="data" d="M1186 486 C1226 486, 1226 410, 1260 410"/>
  <path class="data" d="M1186 486 C1238 486, 1238 410, 1400 410"/>
  <path class="data" d="M1186 486 C1248 486, 1248 530, 1328 530"/>
  <path class="data" d="M1186 562 C1230 562, 1230 530, 1328 530"/>
  <path class="data" d="M1186 562 C1250 562, 1250 296, 1260 296"/>
  <path class="data" d="M1186 562 C1278 562, 1288 182, 1410 182"/>
  <path class="data" d="M1186 638 C1228 638, 1228 182, 1260 182"/>

  <text class="tiny" x="1214" y="246">MTE4: GM -> UB/L1</text>
  <text class="tiny" x="1214" y="360">MTE1: L1 -> GM/UB/L0A/L0B</text>
  <text class="tiny" x="1214" y="470">Cube: L0A/L0B -> L0C</text>
  <text class="tiny" x="1214" y="594">Fixpipe: L0C -> L1/UB</text>
</svg>
